<?xml version="1.0" encoding="utf-8"?>
<!-- Generator: Adobe Illustrator 23.0.6, SVG Export Plug-In . SVG Version: 6.00 Build 0)  -->
<svg version="1.1" id="Layer_1" xmlns="http://www.w3.org/2000/svg" xmlns:xlink="http://www.w3.org/1999/xlink" x="0px" y="0px"
	 viewBox="0 0 280.58 116.63" style="enable-background:new 0 0 280.58 116.63;" xml:space="preserve">
<style type="text/css">
	.st0{fill:#FFFFFF;}
	.st1{opacity:0.4;fill:#FFFFFF;}
	.st2{opacity:0.6;fill:#FFFFFF;}
	.st3{fill:none;}
	.st4{font-family:'GothamRounded-Medium';}
	.st5{font-size:59.9px;}
	.st6{font-size:11.05px;}
</style>
<path class="st0" d="M17.48,22.13c0-2.48,1.96-4.44,4.44-4.44h0.92c2.13,0,3.4,1.04,4.61,2.59l17.12,22.48V21.96
	c0-2.42,1.96-4.38,4.38-4.38c2.42,0,4.38,1.96,4.38,4.38v32.1c0,2.48-1.96,4.44-4.44,4.44h-0.29c-2.13,0-3.4-1.04-4.61-2.59
	L26.24,32.62v21.61c0,2.42-1.96,4.38-4.38,4.38s-4.38-1.96-4.38-4.38V22.13z"/>
<path id="XMLID_42_" class="st1" d="M53.28,39.55c0,2.72-2.27,4.99-4.99,4.99c-1.45,0-2.81-0.73-3.72-1.82V25.73l8.76,0.09
	L53.28,39.55z"/>
<path id="XMLID_35_" class="st1" d="M17.53,35.71c0-2.71,2.26-4.97,4.97-4.97c1.44,0,2.8,0.72,3.7,1.81v16.92l-8.72-0.09
	L17.53,35.71z"/>
<path id="XMLID_26_" class="st0" d="M89.78,46.62c3.18-3.08,5.16-7.38,5.16-12.14c0-9.32-7.58-16.9-16.9-16.9
	c-9.32,0-16.9,7.58-16.9,16.9c0,4.76,1.98,9.06,5.16,12.14c-4.8,3.59-7.92,9.32-7.92,15.76c0,10.84,8.82,19.66,19.66,19.66
	S97.7,73.22,97.7,62.38C97.7,55.94,94.58,50.21,89.78,46.62z M78.03,26.87c4.2,0,7.61,3.42,7.61,7.61s-3.42,7.61-7.61,7.61
	c-4.2,0-7.61-3.42-7.61-7.61S73.84,26.87,78.03,26.87z M78.03,72.76c-5.72,0-10.38-4.65-10.38-10.37s4.65-10.37,10.38-10.37
	c5.72,0,10.37,4.65,10.37,10.37S83.75,72.76,78.03,72.76z"/>
<path class="st1" d="M78.1,72.76c-5.72,0-10.38-4.65-10.38-10.37s4.65-10.37,10.38-10.37L78.08,52l-0.01,0.01
	c0,0-6.35-0.04-11.7-5.37l0,0l-0.02-0.01c-4.8,3.59-7.92,9.32-7.92,15.76c0,10.84,8.82,19.66,19.66,19.66
	C78.26,82.05,78.1,72.76,78.1,72.76z"/>
<path class="st1" d="M78.03,42.09l0.02,0.01l0,0c0,0,4.88,0.15,11.74,4.51c3.17-3.07,5.15-7.38,5.15-12.13
	c0-9.32-7.58-16.9-16.9-16.9v9.29c4.2,0,7.61,3.42,7.61,7.61S82.23,42.09,78.03,42.09z"/>
<path class="st0" d="M21.93,82.1c-1.12,0-2.25-0.43-3.11-1.29c-1.72-1.72-1.72-4.5,0-6.21l13.48-13.48c1.72-1.72,4.5-1.72,6.21,0
	l13.51,13.51c1.72,1.72,1.72,4.5,0,6.21c-1.72,1.72-4.5,1.72-6.21,0l-10.4-10.4L25.04,80.81C24.18,81.67,23.06,82.1,21.93,82.1z"/>
<path id="XMLID_11_" class="st2" d="M44.28,79.27l-8.86-8.82c3.39-3.39,9.03-3.39,12.42,0l3.03,2.99"/>
<rect x="110.15" y="26.31" class="st3" width="156.69" height="67.05"/>
<text transform="matrix(1 0 0 1 110.1484 70.3317)" class="st0 st4 st5">Bede</text>
<rect x="17.48" y="90.88" class="st3" width="245.62" height="8.27"/>
<text transform="matrix(1 0 0 1 49.1913 99.0039)" class="st0 st4 st6">COMPUTATIONALLY INTENSIVE </text>
</svg>
